<svg xmlns="http://www.w3.org/2000/svg" width="224" height="24" viewBox="0 0 224 24"><g><g><g><path fill="#fff" d="M167.051 8v2.103c.825-1.32 2.309-2.557 4.948-2.557 3.547 0 5.444 2.433 5.444 6.433v9.609h-3.011v-8.454c0-3.051-1.03-5.03-3.463-5.03-2.475 0-3.877 2.061-3.877 4.494v8.99h-3.01V10.35c0-.825 0-1.567-.041-2.351zm-13.072 0l.002.041h-.002zm.002.041h2.885v1.98c.494-1.485 2.02-2.392 3.752-2.392.412 0 .577 0 .784.041v2.722a7.474 7.474 0 0 0-1.031-.083c-2.804 0-3.341 2.062-3.341 5.196v8.083h-3.01V10.804c0-.975 0-1.83-.04-2.763zm-15.466 7.753c0 3.464 1.691 5.69 4.619 5.69 2.969 0 4.659-2.226 4.659-5.69 0-3.34-1.732-5.732-4.659-5.732-2.887 0-4.619 2.433-4.619 5.732zm12.577.041c0 4.742-2.927 8.124-7.917 8.124s-7.835-3.382-7.835-8.124c0-4.825 3.051-8.247 7.917-8.247 4.825 0 7.835 3.422 7.835 8.247zM122.391 5.732c0 1.32 0 3.175-.041 4.289.577-1.031 2.227-2.475 4.949-2.475 3.505 0 5.443 2.433 5.443 6.35v9.65h-3.01v-8.412c0-3.052-1.031-5.03-3.464-5.03s-3.877 2.02-3.877 4.411v9.073h-3.01V2.35h3.01zM109.154 8l.002.041h-.002zm.002.041h2.885v1.98c.495-1.485 2.021-2.392 3.752-2.392.413 0 .578 0 .784.041v2.722a7.462 7.462 0 0 0-1.031-.083c-2.804 0-3.34 2.062-3.34 5.196v8.083h-3.01V10.804c0-.975 0-1.83-.04-2.763zm-6.105 6.145c-.288-2.475-1.814-4.207-4.37-4.207-2.434 0-4.33 1.609-4.62 4.207zm3.093 2.433H93.938c.124 2.721 1.897 4.907 4.907 4.907 2.103 0 3.175-1.031 3.959-2.35h3.01c-.907 2.803-3.34 4.824-7.093 4.824-4.783 0-7.793-3.258-7.793-8.124 0-4.866 3.092-8.33 7.793-8.33 5.073 0 7.423 3.836 7.423 8.042v.99zM75.051 8h3.464l2.433 7.093c.742 2.103 1.031 3.01 1.732 5.237h.041c.701-2.144 1.196-3.3 1.938-5.567L86.928 8h3.216c-1.98 5.237-4 10.392-5.98 15.588h-3.257C79.01 18.557 76.99 13.03 75.051 8zm-5.278-5.65h3.01v21.238h-3.01zm-7.505 0h3.134v3.382h-3.134zM65.36 8v15.588h-3.01V8zm-19.176 9.567c.413 2.227 1.897 3.959 4.908 3.959 2.804 0 4.495-1.402 4.495-3.547 0-2.35-1.856-2.886-4.29-3.67l-1.401-.453c-3.794-1.237-6.186-2.722-6.186-6.103 0-3.464 2.97-5.856 7.382-5.856 4.495 0 7.01 2.31 7.381 5.938h-3.216c-.372-2.103-1.732-3.34-4.29-3.34-2.473 0-3.917 1.237-3.917 3.01 0 2.145 1.897 2.887 4.207 3.588l1.484.453c3.711 1.114 6.186 2.475 6.186 6.021 0 3.876-3.176 6.433-7.794 6.433-4.742 0-7.794-2.35-8.041-6.433z"/></g><g><path fill="#fff" d="M34.433 21.443L21.03 0 0 21.03l1.567 2.516L20.412 4.701a22.334 22.334 0 0 1 2.145 9.526c0 2.845-.536 5.608-1.567 8.247l2.68 1.072c1.196-2.969 1.773-6.103 1.773-9.32 0-.618-.041-1.278-.082-1.896l7.01 11.216z"/></g><g><path fill="#fff" d="M199.958 11.546V8.495l1.526.247v4.248h-9.567V8.495l1.526.247v2.804h2.474v-4l1.526.248v3.752zm-.453 12.413l-.33-1.361c.371.041.577.041.701.041.247-.041.412-.247.412-.577v-3.794h-1.732v5.32h-1.402v-5.32h-1.32v5.32h-1.402v-5.32h-1.443v5.69h-1.526v-7.092h3.34l.495-1.278h-4.082v-1.444h10.845v1.444h-5.154l-.536 1.278h5.484v5.155c0 1.32-.536 1.979-1.814 1.979h-.536zm-10.64-8.371v3.876l1.98-.577v1.566l-5.485 1.732-.041-1.567 1.979-.7v-4.33h-1.649v-1.444h1.649v-4h-2.103V8.701h5.691v1.443h-2.021v4h1.609v1.444z"/></g><g><path fill="#fff" d="M216.082 10.557c.247-.207.412-.454.618-.66h3.588c-.247.783-1.113 1.608-2.062 1.98-.701-.29-1.691-.867-2.144-1.32zm7.216 10.062h-4.412v-1.114h3.546v-1.36h-3.546v-1.238h3.917v-1.402h-3.917l.124-1.113h-1.65l.124 1.113h-3.876v1.36h3.835v1.238h-3.547v1.36h3.547v1.156h-4.248v1.36h4.248l-.042 1.98h1.526l-.041-1.98h4.412zm-9.567-5.815c1.402-.165 3.67-.948 4.536-1.485.908.537 3.299 1.361 4.66 1.444l.578-1.32c-1.444-.165-2.846-.577-3.836-.948.99-.577 2.021-1.856 2.269-2.804v-.949h-4.495c.206-.288.33-.618.371-.866l-1.443-.37c-.701 1.607-2.021 2.72-3.341 3.504l.701 1.155a8.918 8.918 0 0 0 1.361-.784c.371.413 1.196.949 1.691 1.196-.949.454-2.227.743-3.67.99zm-1.154-2.68l-1.444-.248v7.588h-1.443V8.99l-1.443-.248v10.722h-1.443v-7.588l-1.444-.247v9.32h5.773v.577h1.444z"/></g></g></g></svg>