<svg xmlns="http://www.w3.org/2000/svg" width="168" height="18" viewBox="0 0 168 18"><g><g><g><path d="M125.288 6v1.577c.619-.99 1.732-1.917 3.711-1.917 2.66 0 4.083 1.825 4.083 4.825v7.206h-2.258v-6.34c0-2.29-.772-3.774-2.597-3.774-1.856 0-2.908 1.547-2.908 3.372v6.742h-2.258V7.763c0-.619 0-1.175-.03-1.763h2.226zm-9.804 0l.002.03h-.002zm.002.03h2.163v1.486c.371-1.114 1.515-1.794 2.814-1.794.31 0 .433 0 .589.03v2.042a5.606 5.606 0 0 0-.774-.062c-2.103 0-2.506 1.546-2.506 3.897v6.062h-2.257V8.103c0-.731 0-1.373-.03-2.072zm-11.6 5.815c0 2.598 1.268 4.268 3.465 4.268 2.226 0 3.494-1.67 3.494-4.268 0-2.505-1.3-4.299-3.495-4.299-2.165 0-3.464 1.825-3.464 4.3zm9.433.031c0 3.557-2.195 6.093-5.938 6.093-3.742 0-5.876-2.536-5.876-6.093 0-3.618 2.288-6.185 5.938-6.185 3.618 0 5.876 2.567 5.876 6.185zM91.793 4.3c0 .99 0 2.381-.03 3.217.432-.774 1.67-1.856 3.711-1.856 2.629 0 4.083 1.825 4.083 4.763v7.237h-2.258v-6.31c0-2.288-.773-3.773-2.598-3.773-1.825 0-2.908 1.516-2.908 3.31v6.804h-2.257V1.763h2.257zM81.865 6l.002.03h-.002zm.002.03h2.164v1.486c.371-1.114 1.515-1.794 2.814-1.794.31 0 .433 0 .588.03v2.042a5.596 5.596 0 0 0-.774-.062c-2.103 0-2.505 1.546-2.505 3.897v6.062h-2.257V8.103c0-.731 0-1.373-.03-2.072zm-4.579 4.61c-.216-1.856-1.36-3.155-3.278-3.155-1.825 0-3.247 1.206-3.464 3.154zm2.32 1.824h-9.155c.093 2.041 1.423 3.68 3.68 3.68 1.578 0 2.382-.773 2.97-1.763h2.258C78.68 16.485 76.855 18 74.04 18c-3.588 0-5.845-2.443-5.845-6.093s2.32-6.247 5.845-6.247c3.805 0 5.567 2.876 5.567 6.03zM60.68 17.69C59.258 13.918 57.742 9.773 56.288 6h2.598l1.825 5.32a97.549 97.549 0 0 1 1.3 3.927h.03c.526-1.608.897-2.474 1.454-4.175L65.195 6h2.413c-1.484 3.928-3 7.794-4.484 11.69zM52.33 1.763h2.257V17.69H52.33zm-5.63 0h2.351v2.536h-2.35zM49.02 6v11.69h-2.257V6zM34.64 13.175c.31 1.67 1.423 2.97 3.68 2.97 2.104 0 3.372-1.052 3.372-2.66 0-1.763-1.392-2.165-3.217-2.753l-1.051-.34c-2.846-.928-4.64-2.041-4.64-4.578 0-2.597 2.227-4.391 5.536-4.391 3.372 0 5.258 1.732 5.537 4.453h-2.413c-.278-1.577-1.299-2.505-3.216-2.505-1.856 0-2.938.928-2.938 2.258 0 1.608 1.422 2.165 3.154 2.69l1.114.34c2.783.836 4.639 1.856 4.639 4.516 0 2.907-2.382 4.825-5.846 4.825-3.556 0-5.845-1.763-6.03-4.825z"/></g><g><path d="M25.825 16.082L15.773 0 0 15.773l1.175 1.887L15.31 3.526a16.75 16.75 0 0 1 .433 13.33l2.01.804c.897-2.227 1.33-4.578 1.33-6.99 0-.464-.03-.959-.061-1.423l5.257 8.413z"/></g><g><path d="M148.113 8.66h1.855V6.37l1.145.186v3.185h-7.175v-3.37l1.144.185V8.66h1.856v-3l1.144.185V8.66zm1.516 9.309l-.248-1.02c.278.03.433.03.526.03.185-.03.309-.185.309-.433v-2.845h-1.299v3.99h-1.051V13.7h-.99v3.99h-1.052V13.7h-1.082v4.268h-1.145v-5.32h2.505l.371-.958h-3.061v-1.083h8.134v1.083h-3.866l-.402.958h4.113v3.866c0 .99-.402 1.485-1.36 1.485h-.402zm-7.98-6.278v2.907l1.485-.433v1.175l-4.114 1.3-.03-1.176 1.484-.526v-3.247h-1.237v-1.083h1.237v-3h-1.578V6.526h4.269v1.082h-1.516v3h1.206v1.083z"/></g><g><path d="M162.061 7.917c.186-.154.31-.34.464-.494h2.691c-.185.587-.835 1.206-1.547 1.484-.525-.216-1.268-.65-1.608-.99zm5.413 7.547h-3.31v-.835h2.66v-1.02h-2.66v-.929h2.938V11.63h-2.938l.093-.835h-1.237l.093.835h-2.907v1.02h2.876v.928h-2.66v1.02h2.66v.867h-3.186v1.02h3.186l-.031 1.485h1.144l-.03-1.485h3.309zm-7.176-4.36c1.052-.125 2.753-.712 3.402-1.114.681.402 2.474 1.02 3.495 1.082l.434-.99c-1.083-.123-2.135-.433-2.877-.71.742-.434 1.515-1.393 1.701-2.104v-.711h-3.37c.154-.217.247-.464.277-.65l-1.082-.278c-.526 1.206-1.516 2.041-2.506 2.629l.526.866c.34-.155.712-.371 1.021-.588.278.31.897.711 1.268.897-.712.34-1.67.557-2.752.742zm-.865-2.011l-1.083-.186v5.69h-1.082V6.743l-1.083-.185v8.04h-1.082v-5.69l-1.083-.185v6.99h4.33v.432h1.083z"/></g></g></g></svg>